<svg xmlns="http://www.w3.org/2000/svg" viewBox="0 0 800 460" width="800" height="460" role="img" aria-label="">
<defs><linearGradient id="g" x1="0" y1="0" x2="0" y2="1">
<stop offset="0" stop-color="#14161D"/><stop offset="1" stop-color="#0A0B0F"/></linearGradient></defs>
<rect width="800" height="460" fill="url(#g)"/>
<g fill="none" stroke="#9DB4FF" color="#9DB4FF" stroke-width="1.1">
<line x1="0" y1="417.5" x2="800" y2="417.5" opacity=".5"/>
<rect x="11.7" y="274.4" width="29.9" height="185.6" fill="currentColor" stroke="none" opacity="0.1"/>
<rect x="65.1" y="160.6" width="29.9" height="299.4" fill="currentColor" stroke="none" opacity="0.1"/>
<line x1="65.1" y1="160.6" x2="94.9" y2="160.6" opacity=".55"/>
<rect x="118.4" y="235.7" width="29.9" height="224.3" fill="currentColor" stroke="none" opacity="0.1"/>
<rect x="171.7" y="305.2" width="29.9" height="154.8" fill="currentColor" stroke="none" opacity="0.1"/>
<rect x="225.1" y="369" width="29.9" height="91" fill="currentColor" stroke="none" opacity="0.1"/>
<rect x="278.4" y="356.7" width="29.9" height="103.3" fill="currentColor" stroke="none" opacity="0.1"/>
<rect x="331.7" y="126.2" width="29.9" height="333.8" fill="currentColor" stroke="none" opacity="0.1"/>
<rect x="385.1" y="247.4" width="29.9" height="212.6" fill="currentColor" stroke="none" opacity="0.1"/>
<rect x="438.4" y="82.5" width="29.9" height="377.5" fill="currentColor" stroke="none" opacity="0.2"/>
<rect x="491.7" y="301" width="29.9" height="159" fill="currentColor" stroke="none" opacity="0.2"/>
<rect x="545.1" y="135.4" width="29.9" height="324.6" fill="currentColor" stroke="none" opacity="0.2"/>
<rect x="598.4" y="273.3" width="29.9" height="186.7" fill="currentColor" stroke="none" opacity="0.2"/>
<rect x="651.7" y="213.7" width="29.9" height="246.3" fill="currentColor" stroke="none" opacity="0.2"/>
<rect x="705.1" y="99.3" width="29.9" height="360.7" fill="currentColor" stroke="none" opacity="0.1"/>
<rect x="758.4" y="324.7" width="29.9" height="135.3" fill="currentColor" stroke="none" opacity="0.3"/>
</g></svg>